<?xml version="1.0" encoding="iso-8859-1"?>
<!-- Uploaded to: SVG Repo, www.svgrepo.com, Generator: SVG Repo Mixer Tools -->
<svg height="800px" width="800px" version="1.1" id="Layer_1" xmlns="http://www.w3.org/2000/svg" xmlns:xlink="http://www.w3.org/1999/xlink" 
	 viewBox="0 0 512.001 512.001" xml:space="preserve">
<path style="fill:#00D7DF;" d="M461.913,311.652H148.468c-8.001,0-14.869-5.674-16.392-13.521L93.299,97.783
	c-0.946-4.892,0.343-9.956,3.511-13.798c3.174-3.843,7.897-6.072,12.881-6.072h385.614c4.907,0,9.565,2.157,12.739,5.902
	s4.538,8.696,3.729,13.544l-33.391,200.348C477.038,305.75,470.076,311.652,461.913,311.652z"/>
<path style="fill:#00B6BD;" d="M495.304,77.913H306.087v233.739h155.826c8.163,0,15.125-5.902,16.467-13.945l33.391-200.348
	c0.81-4.847-0.554-9.799-3.729-13.544C504.869,80.072,500.212,77.913,495.304,77.913z"/>
<g>
	<path style="fill:#00A6AC;" d="M461.913,378.435H161.391c-8.001,0-14.869-5.674-16.392-13.521L80.837,33.392H16.696
		C7.473,33.392,0,25.919,0,16.696S7.473,0,16.696,0h77.913c8.001,0,14.869,5.674,16.392,13.521l64.162,331.522h286.75
		c9.223,0,16.696,7.479,16.696,16.696C478.609,370.957,471.136,378.435,461.913,378.435z"/>
	<path style="fill:#00A6AC;" d="M217.043,512c-27.619,0-50.087-22.468-50.087-50.087s22.468-50.087,50.087-50.087
		s50.087,22.468,50.087,50.087S244.663,512,217.043,512z M217.043,445.218c-9.206,0-16.696,7.49-16.696,16.696
		s7.49,16.696,16.696,16.696s16.696-7.49,16.696-16.696S226.249,445.218,217.043,445.218z"/>
</g>
<g>
	<path style="fill:#00858A;" d="M406.261,512c-27.619,0-50.087-22.468-50.087-50.087s22.468-50.087,50.087-50.087
		c27.619,0,50.087,22.468,50.087,50.087S433.88,512,406.261,512z M406.261,445.218c-9.206,0-16.696,7.49-16.696,16.696
		s7.49,16.696,16.696,16.696c9.206,0,16.696-7.49,16.696-16.696S415.467,445.218,406.261,445.218z"/>
	<path style="fill:#00858A;" d="M461.913,345.044H306.087v33.391h155.826c9.223,0,16.696-7.479,16.696-16.696
		C478.609,352.522,471.136,345.044,461.913,345.044z"/>
</g>
<g>
	<path style="fill:#00A6AC;" d="M306.087,244.87c-9.223,0-16.696-7.479-16.696-16.696v-66.783c0-9.217,7.473-16.696,16.696-16.696
		s16.696,7.479,16.696,16.696v66.783C322.783,237.391,315.31,244.87,306.087,244.87z"/>
	<path style="fill:#00A6AC;" d="M205.913,244.87c-9.223,0-16.696-7.479-16.696-16.696v-66.783c0-9.217,7.473-16.696,16.696-16.696
		s16.696,7.479,16.696,16.696v66.783C222.609,237.391,215.136,244.87,205.913,244.87z"/>
</g>
<g>
	<path style="fill:#00858A;" d="M406.261,244.87c-9.223,0-16.696-7.479-16.696-16.696v-66.783c0-9.217,7.473-16.696,16.696-16.696
		c9.223,0,16.696,7.479,16.696,16.696v66.783C422.957,237.391,415.484,244.87,406.261,244.87z"/>
	<path style="fill:#00858A;" d="M322.783,228.174v-66.783c0-9.217-7.791-16.696-16.696-16.696V244.87
		C314.991,244.87,322.783,237.391,322.783,228.174z"/>
</g>
</svg>